<?xml version="1.0" encoding="UTF-8"?>
<svg height="128px" viewBox="0 0 128 128" width="128px" xmlns="http://www.w3.org/2000/svg" xmlns:xlink="http://www.w3.org/1999/xlink">
    <linearGradient id="a" gradientTransform="matrix(-0 -1 1 -0 -349.751495 -553.518646)" gradientUnits="userSpaceOnUse" x1="-678.011292" x2="-558.011353" y1="413.5513" y2="413.5513">
        <stop offset="0" stop-color="#8e0246"/>
        <stop offset="0.502855" stop-color="#c2124d"/>
        <stop offset="1" stop-color="#f42254"/>
    </linearGradient>
    <path d="m 123.800781 66.492188 c 0 33.136718 -26.863281 60 -60 60 s -60 -26.863282 -60 -60 c 0 -33.136719 26.863281 -60 60 -60 s 60 26.863281 60 60 z m 0 0" fill="#7a013c"/>
    <path d="m 63.800781 4.492188 c 33.136719 0 60 26.863281 60 60 c 0 33.136718 -26.863281 60 -60 60 s -60 -26.863282 -60 -60 c 0 -33.136719 26.863281 -60 60 -60 z m 0 0" fill="url(#a)"/>
    <path d="m 26.738281 66.113281 c 0 20.871094 16.921875 37.792969 37.792969 37.792969 c 20.875 0 37.792969 -16.921875 37.792969 -37.792969 s -16.917969 -37.792969 -37.792969 -37.792969 c -20.871094 0 -37.792969 16.921875 -37.792969 37.792969 z m 0 0" fill="none" stroke="#0f0f0f" stroke-width="6.86252"/>
    <path d="m 56.121094 75.957031 v -19.476562 c 0 -2.65625 2.242187 -2.640625 2.242187 -2.640625 h 0.234375 c 0.4375 0 0.859375 0.097656 1.238282 0.308594 l 17.347656 9.914062 c 0.769531 0.421875 1.164062 1.292969 1.164062 2.164062 c 0 0.871094 -0.394531 1.742188 -1.164062 2.171876 l -17.347656 9.910156 c -0.378907 0.214844 -0.800782 0.3125 -1.238282 0.304687 h -0.234375 s -2.242187 0 -2.242187 -2.65625 z m 0 0" fill="#0f0f0f"/>
</svg>
